<?xml version="1.0" encoding="UTF-8" standalone="no"?>
<!DOCTYPE svg PUBLIC "-//W3C//DTD SVG 1.1//EN"
 "http://www.w3.org/Graphics/SVG/1.1/DTD/svg11.dtd">
<!-- Generated by graphviz version 2.36.0 (20140111.2315)
 -->
<!-- Title: controllers_diagram Pages: 1 -->
<svg width="414pt" height="388pt"
 viewBox="0.00 0.00 414.00 388.00" xmlns="http://www.w3.org/2000/svg" xmlns:xlink="http://www.w3.org/1999/xlink">
<g id="graph0" class="graph" transform="scale(1 1) rotate(0) translate(4 384)">
<title>controllers_diagram</title>
<polygon fill="none" stroke="none" points="-4,4 -4,-384 410,-384 410,4 -4,4"/>
<!-- _diagram_info -->
<g id="node1" class="node"><title>_diagram_info</title>
<text text-anchor="start" x="200" y="-63.6" font-family="Times,serif" font-size="13.00">Controllers diagram</text>
<text text-anchor="start" x="200" y="-49.6" font-family="Times,serif" font-size="13.00">Date: Oct 20 2018 &#45; 17:14</text>
<text text-anchor="start" x="200" y="-35.6" font-family="Times,serif" font-size="13.00">Migration version: 20181019101553</text>
<text text-anchor="start" x="200" y="-21.6" font-family="Times,serif" font-size="13.00">Generated by RailRoady 1.5.3</text>
<text text-anchor="start" x="200" y="-7.6" font-family="Times,serif" font-size="13.00">http://railroady.prestonlee.com</text>
</g>
<!-- ToDoCategoriesController -->
<g id="node2" class="node"><title>ToDoCategoriesController</title>
<path fill="none" stroke="black" d="M12,-16.5C12,-16.5 149,-16.5 149,-16.5 155,-16.5 161,-22.5 161,-28.5 161,-28.5 161,-157.5 161,-157.5 161,-163.5 155,-169.5 149,-169.5 149,-169.5 12,-169.5 12,-169.5 6,-169.5 0,-163.5 0,-157.5 0,-157.5 0,-28.5 0,-28.5 0,-22.5 6,-16.5 12,-16.5"/>
<text text-anchor="middle" x="80.5" y="-154.3" font-family="Times,serif" font-size="14.00">ToDoCategoriesController</text>
<polyline fill="none" stroke="black" points="0,-146.5 161,-146.5 "/>
<text text-anchor="start" x="8" y="-131.3" font-family="Times,serif" font-size="14.00">completed</text>
<text text-anchor="start" x="8" y="-116.3" font-family="Times,serif" font-size="14.00">create</text>
<text text-anchor="start" x="8" y="-101.3" font-family="Times,serif" font-size="14.00">index</text>
<text text-anchor="start" x="8" y="-86.3" font-family="Times,serif" font-size="14.00">new</text>
<polyline fill="none" stroke="black" points="0,-78.5 161,-78.5 "/>
<polyline fill="none" stroke="black" points="0,-54.5 161,-54.5 "/>
<text text-anchor="start" x="8" y="-39.3" font-family="Times,serif" font-size="14.00">_layout</text>
<text text-anchor="start" x="8" y="-24.3" font-family="Times,serif" font-size="14.00">to_do_category_params</text>
</g>
<!-- ApplicationController -->
<g id="node3" class="node"><title>ApplicationController</title>
<path fill="none" stroke="black" d="M204,-112.5C204,-112.5 316,-112.5 316,-112.5 322,-112.5 328,-118.5 328,-124.5 328,-124.5 328,-209.5 328,-209.5 328,-215.5 322,-221.5 316,-221.5 316,-221.5 204,-221.5 204,-221.5 198,-221.5 192,-215.5 192,-209.5 192,-209.5 192,-124.5 192,-124.5 192,-118.5 198,-112.5 204,-112.5"/>
<text text-anchor="middle" x="260" y="-206.3" font-family="Times,serif" font-size="14.00">ApplicationController</text>
<polyline fill="none" stroke="black" points="192,-198.5 328,-198.5 "/>
<polyline fill="none" stroke="black" points="192,-174.5 328,-174.5 "/>
<polyline fill="none" stroke="black" points="192,-150.5 328,-150.5 "/>
<text text-anchor="start" x="200" y="-135.3" font-family="Times,serif" font-size="14.00">_layout</text>
<text text-anchor="start" x="200" y="-120.3" font-family="Times,serif" font-size="14.00">logged_in?</text>
</g>
<!-- SessionsController -->
<g id="node4" class="node"><title>SessionsController</title>
<path fill="none" stroke="black" d="M60,-208.5C60,-208.5 155,-208.5 155,-208.5 161,-208.5 167,-214.5 167,-220.5 167,-220.5 167,-319.5 167,-319.5 167,-325.5 161,-331.5 155,-331.5 155,-331.5 60,-331.5 60,-331.5 54,-331.5 48,-325.5 48,-319.5 48,-319.5 48,-220.5 48,-220.5 48,-214.5 54,-208.5 60,-208.5"/>
<text text-anchor="middle" x="107.5" y="-316.3" font-family="Times,serif" font-size="14.00">SessionsController</text>
<polyline fill="none" stroke="black" points="48,-308.5 167,-308.5 "/>
<text text-anchor="start" x="56" y="-293.3" font-family="Times,serif" font-size="14.00">create</text>
<text text-anchor="start" x="56" y="-278.3" font-family="Times,serif" font-size="14.00">destroy</text>
<text text-anchor="start" x="56" y="-263.3" font-family="Times,serif" font-size="14.00">new</text>
<polyline fill="none" stroke="black" points="48,-255.5 167,-255.5 "/>
<polyline fill="none" stroke="black" points="48,-231.5 167,-231.5 "/>
<text text-anchor="start" x="56" y="-216.3" font-family="Times,serif" font-size="14.00">_layout</text>
</g>
<!-- UsersController -->
<g id="node5" class="node"><title>UsersController</title>
<path fill="none" stroke="black" d="M268,-256.5C268,-256.5 350,-256.5 350,-256.5 356,-256.5 362,-262.5 362,-268.5 362,-268.5 362,-367.5 362,-367.5 362,-373.5 356,-379.5 350,-379.5 350,-379.5 268,-379.5 268,-379.5 262,-379.5 256,-373.5 256,-367.5 256,-367.5 256,-268.5 256,-268.5 256,-262.5 262,-256.5 268,-256.5"/>
<text text-anchor="middle" x="309" y="-364.3" font-family="Times,serif" font-size="14.00">UsersController</text>
<polyline fill="none" stroke="black" points="256,-356.5 362,-356.5 "/>
<text text-anchor="start" x="264" y="-341.3" font-family="Times,serif" font-size="14.00">create</text>
<text text-anchor="start" x="264" y="-326.3" font-family="Times,serif" font-size="14.00">new</text>
<polyline fill="none" stroke="black" points="256,-318.5 362,-318.5 "/>
<polyline fill="none" stroke="black" points="256,-294.5 362,-294.5 "/>
<text text-anchor="start" x="264" y="-279.3" font-family="Times,serif" font-size="14.00">_layout</text>
<text text-anchor="start" x="264" y="-264.3" font-family="Times,serif" font-size="14.00">allowed_params</text>
</g>
</g>
</svg>
