<?xml version="1.0" encoding="UTF-8" standalone="no"?>
<!DOCTYPE svg PUBLIC "-//W3C//DTD SVG 1.1//EN"
 "http://www.w3.org/Graphics/SVG/1.1/DTD/svg11.dtd">
<!-- Generated by graphviz version 2.36.0 (20140111.2315)
 -->
<!-- Title: models_diagram Pages: 1 -->
<svg width="717pt" height="320pt"
 viewBox="0.00 0.00 717.00 320.00" xmlns="http://www.w3.org/2000/svg" xmlns:xlink="http://www.w3.org/1999/xlink">
<g id="graph0" class="graph" transform="scale(1 1) rotate(0) translate(4 316)">
<title>models_diagram</title>
<polygon fill="none" stroke="none" points="-4,4 -4,-316 713,-316 713,4 -4,4"/>
<!-- _diagram_info -->
<g id="node1" class="node"><title>_diagram_info</title>
<text text-anchor="start" x="8" y="-282.6" font-family="Times,serif" font-size="13.00">Models diagram</text>
<text text-anchor="start" x="8" y="-268.6" font-family="Times,serif" font-size="13.00">Date: Oct 20 2018 &#45; 17:14</text>
<text text-anchor="start" x="8" y="-254.6" font-family="Times,serif" font-size="13.00">Migration version: 20181019101553</text>
<text text-anchor="start" x="8" y="-240.6" font-family="Times,serif" font-size="13.00">Generated by RailRoady 1.5.3</text>
<text text-anchor="start" x="8" y="-226.6" font-family="Times,serif" font-size="13.00">http://railroady.prestonlee.com</text>
</g>
<!-- SubCategory -->
<g id="node2" class="node"><title>SubCategory</title>
<path fill="none" stroke="black" d="M244.5,-212.5C244.5,-212.5 351.5,-212.5 351.5,-212.5 357.5,-212.5 363.5,-218.5 363.5,-224.5 363.5,-224.5 363.5,-291.5 363.5,-291.5 363.5,-297.5 357.5,-303.5 351.5,-303.5 351.5,-303.5 244.5,-303.5 244.5,-303.5 238.5,-303.5 232.5,-297.5 232.5,-291.5 232.5,-291.5 232.5,-224.5 232.5,-224.5 232.5,-218.5 238.5,-212.5 244.5,-212.5"/>
<text text-anchor="middle" x="298" y="-288.3" font-family="Times,serif" font-size="14.00">SubCategory</text>
<polyline fill="none" stroke="black" points="232.5,-280.5 363.5,-280.5 "/>
<text text-anchor="start" x="240.5" y="-265.3" font-family="Times,serif" font-size="14.00">id :integer</text>
<text text-anchor="start" x="240.5" y="-250.3" font-family="Times,serif" font-size="14.00">name :varchar</text>
<text text-anchor="start" x="240.5" y="-235.3" font-family="Times,serif" font-size="14.00">created_at :datetime</text>
<text text-anchor="start" x="240.5" y="-220.3" font-family="Times,serif" font-size="14.00">updated_at :datetime</text>
</g>
<!-- ToDoCategory -->
<g id="node4" class="node"><title>ToDoCategory</title>
<path fill="none" stroke="black" d="M314.5,-1C314.5,-1 441.5,-1 441.5,-1 447.5,-1 453.5,-7 453.5,-13 453.5,-13 453.5,-155 453.5,-155 453.5,-161 447.5,-167 441.5,-167 441.5,-167 314.5,-167 314.5,-167 308.5,-167 302.5,-161 302.5,-155 302.5,-155 302.5,-13 302.5,-13 302.5,-7 308.5,-1 314.5,-1"/>
<text text-anchor="middle" x="378" y="-151.8" font-family="Times,serif" font-size="14.00">ToDoCategory</text>
<polyline fill="none" stroke="black" points="302.5,-144 453.5,-144 "/>
<text text-anchor="start" x="310.5" y="-128.8" font-family="Times,serif" font-size="14.00">id :integer</text>
<text text-anchor="start" x="310.5" y="-113.8" font-family="Times,serif" font-size="14.00">title :varchar</text>
<text text-anchor="start" x="310.5" y="-98.8" font-family="Times,serif" font-size="14.00">due_date :datetime</text>
<text text-anchor="start" x="310.5" y="-83.8" font-family="Times,serif" font-size="14.00">status :boolean</text>
<text text-anchor="start" x="310.5" y="-68.8" font-family="Times,serif" font-size="14.00">sub_category_id :integer</text>
<text text-anchor="start" x="310.5" y="-53.8" font-family="Times,serif" font-size="14.00">user_id :integer</text>
<text text-anchor="start" x="310.5" y="-38.8" font-family="Times,serif" font-size="14.00">created_at :datetime</text>
<text text-anchor="start" x="310.5" y="-23.8" font-family="Times,serif" font-size="14.00">updated_at :datetime</text>
<text text-anchor="start" x="310.5" y="-8.8" font-family="Times,serif" font-size="14.00">sort :integer</text>
</g>
<!-- SubCategory&#45;&gt;ToDoCategory -->
<g id="edge1" class="edge"><title>SubCategory&#45;&gt;ToDoCategory</title>
<path fill="none" stroke="#ae8f5e" d="M322.201,-204.969C326.409,-195.921 330.895,-186.276 335.426,-176.535"/>
<ellipse fill="none" stroke="#ae8f5e" cx="320.497" cy="-208.631" rx="4.00002" ry="4.00002"/>
<polygon fill="#ae8f5e" stroke="#ae8f5e" points="335.558,-176.251 343.855,-169.081 337.666,-171.717 339.775,-167.183 339.775,-167.183 339.775,-167.183 337.666,-171.717 335.695,-165.286 335.558,-176.251 335.558,-176.251"/>
</g>
<!-- ApplicationRecord -->
<g id="node3" class="node"><title>ApplicationRecord</title>
<ellipse fill="none" stroke="black" cx="632" cy="-258" rx="77.0154" ry="18"/>
<text text-anchor="middle" x="632" y="-254.3" font-family="Times,serif" font-size="14.00">ApplicationRecord</text>
</g>
<!-- User -->
<g id="node5" class="node"><title>User</title>
<path fill="none" stroke="black" d="M393.5,-205C393.5,-205 524.5,-205 524.5,-205 530.5,-205 536.5,-211 536.5,-217 536.5,-217 536.5,-299 536.5,-299 536.5,-305 530.5,-311 524.5,-311 524.5,-311 393.5,-311 393.5,-311 387.5,-311 381.5,-305 381.5,-299 381.5,-299 381.5,-217 381.5,-217 381.5,-211 387.5,-205 393.5,-205"/>
<text text-anchor="middle" x="459" y="-295.8" font-family="Times,serif" font-size="14.00">User</text>
<polyline fill="none" stroke="black" points="381.5,-288 536.5,-288 "/>
<text text-anchor="start" x="389.5" y="-272.8" font-family="Times,serif" font-size="14.00">id :integer</text>
<text text-anchor="start" x="389.5" y="-257.8" font-family="Times,serif" font-size="14.00">email :varchar</text>
<text text-anchor="start" x="389.5" y="-242.8" font-family="Times,serif" font-size="14.00">password_digest :varchar</text>
<text text-anchor="start" x="389.5" y="-227.8" font-family="Times,serif" font-size="14.00">created_at :datetime</text>
<text text-anchor="start" x="389.5" y="-212.8" font-family="Times,serif" font-size="14.00">updated_at :datetime</text>
</g>
<!-- User&#45;&gt;ToDoCategory -->
<g id="edge2" class="edge"><title>User&#45;&gt;ToDoCategory</title>
<path fill="none" stroke="#7a2601" d="M430.988,-197.518C427.732,-190.604 424.357,-183.436 420.958,-176.219"/>
<ellipse fill="none" stroke="#7a2601" cx="432.773" cy="-201.309" rx="4.00002" ry="4.00002"/>
<polygon fill="#7a2601" stroke="#7a2601" points="420.909,-176.114 420.719,-165.15 418.778,-171.591 416.648,-167.067 416.648,-167.067 416.648,-167.067 418.778,-171.591 412.577,-168.985 420.909,-176.114 420.909,-176.114"/>
</g>
</g>
</svg>
