<?xml version="1.0" encoding="UTF-8" standalone="no"?>
<!DOCTYPE svg PUBLIC "-//W3C//DTD SVG 1.1//EN"
 "http://www.w3.org/Graphics/SVG/1.1/DTD/svg11.dtd">
<!-- Generated by graphviz version 2.36.0 (20140111.2315)
 -->
<!-- Title: models_diagram Pages: 1 -->
<svg width="599pt" height="158pt"
 viewBox="0.00 0.00 599.00 158.00" xmlns="http://www.w3.org/2000/svg" xmlns:xlink="http://www.w3.org/1999/xlink">
<g id="graph0" class="graph" transform="scale(1 1) rotate(0) translate(4 154)">
<title>models_diagram</title>
<polygon fill="none" stroke="none" points="-4,4 -4,-154 595,-154 595,4 -4,4"/>
<!-- _diagram_info -->
<g id="node1" class="node"><title>_diagram_info</title>
<text text-anchor="start" x="8" y="-135.6" font-family="Times,serif" font-size="13.00">Models diagram</text>
<text text-anchor="start" x="8" y="-121.6" font-family="Times,serif" font-size="13.00">Date: Oct 20 2018 &#45; 17:14</text>
<text text-anchor="start" x="8" y="-107.6" font-family="Times,serif" font-size="13.00">Migration version: 20181019101553</text>
<text text-anchor="start" x="8" y="-93.6" font-family="Times,serif" font-size="13.00">Generated by RailRoady 1.5.3</text>
<text text-anchor="start" x="8" y="-79.6" font-family="Times,serif" font-size="13.00">http://railroady.prestonlee.com</text>
</g>
<!-- SubCategory -->
<g id="node2" class="node"><title>SubCategory</title>
<ellipse fill="none" stroke="black" cx="289" cy="-111" rx="56.3173" ry="18"/>
<text text-anchor="middle" x="289" y="-107.3" font-family="Times,serif" font-size="14.00">SubCategory</text>
</g>
<!-- ToDoCategory -->
<g id="node4" class="node"><title>ToDoCategory</title>
<ellipse fill="none" stroke="black" cx="340" cy="-18" rx="63.5411" ry="18"/>
<text text-anchor="middle" x="340" y="-14.3" font-family="Times,serif" font-size="14.00">ToDoCategory</text>
</g>
<!-- SubCategory&#45;&gt;ToDoCategory -->
<g id="edge1" class="edge"><title>SubCategory&#45;&gt;ToDoCategory</title>
<path fill="none" stroke="#b2ee77" d="M302.682,-85.5866C309.743,-72.9889 318.355,-57.622 325.526,-44.8262"/>
<ellipse fill="none" stroke="#b2ee77" cx="300.548" cy="-89.3942" rx="4.00002" ry="4.00002"/>
<polygon fill="#b2ee77" stroke="#b2ee77" points="325.561,-44.7631 334.376,-38.2397 328.006,-40.4014 330.45,-36.0397 330.45,-36.0397 330.45,-36.0397 328.006,-40.4014 326.525,-33.8396 325.561,-44.7631 325.561,-44.7631"/>
</g>
<!-- ApplicationRecord -->
<g id="node3" class="node"><title>ApplicationRecord</title>
<ellipse fill="none" stroke="black" cx="514" cy="-111" rx="77.0154" ry="18"/>
<text text-anchor="middle" x="514" y="-107.3" font-family="Times,serif" font-size="14.00">ApplicationRecord</text>
</g>
<!-- User -->
<g id="node5" class="node"><title>User</title>
<ellipse fill="none" stroke="black" cx="391" cy="-111" rx="26.949" ry="18"/>
<text text-anchor="middle" x="391" y="-107.3" font-family="Times,serif" font-size="14.00">User</text>
</g>
<!-- User&#45;&gt;ToDoCategory -->
<g id="edge2" class="edge"><title>User&#45;&gt;ToDoCategory</title>
<path fill="none" stroke="#e52ab6" d="M377.778,-86.4076C370.667,-73.7187 361.882,-58.0439 354.574,-45.0038"/>
<ellipse fill="none" stroke="#e52ab6" cx="379.927" cy="-90.2416" rx="4.00002" ry="4.00002"/>
<polygon fill="#e52ab6" stroke="#e52ab6" points="354.447,-44.7781 353.484,-33.8546 352.003,-40.4164 349.558,-36.0547 349.558,-36.0547 349.558,-36.0547 352.003,-40.4164 345.633,-38.2547 354.447,-44.7781 354.447,-44.7781"/>
</g>
</g>
</svg>
